{"asset":{"version":"2.0","generator":"babylon.js glTF exporter for 3dsmax 2020 v1.5.0"},"scene":0,"scenes":[{"nodes":[0,1,2,3,4,5,6,7,8,9],"extensions":{}}],"nodes":[{"mesh":0,"translation":[-0.297227919,-1.525879E-07,-0.5788511],"rotation":[0.0,0.0,0.0,1.0],"scale":[1.0,1.0,1.0],"name":"华3机柜-无LOGO_ sdf"},{"mesh":1,"translation":[-1.3732911E-07,0.0,1.50299081E-06],"rotation":[0.0,0.0,0.0,1.0],"scale":[1.0,1.0,1.0],"name":"华3机柜-无LOGO_Box001"},{"mesh":2,"translation":[0.2972289,3.051758E-07,0.5787033],"rotation":[0.0,0.0,0.0,1.0],"scale":[1.0,1.0,1.0],"name":"华3机柜-无LOGO_Object001"},{"mesh":3,"translation":[-0.2970631,-1.525879E-07,-0.5788511],"rotation":[0.0,0.0,0.0,1.0],"scale":[1.0,1.0,1.0],"name":"华3机柜-无LOGO_Object002"},{"mesh":4,"translation":[0.2972289,-1.525879E-07,-0.5788517],"rotation":[0.0,0.0,0.0,1.0],"scale":[1.0,1.0,1.0],"name":"华3机柜-无LOGO_Object003"},{"mesh":5,"translation":[0.2972289,-1.525879E-07,-0.5788517],"rotation":[0.0,0.0,0.0,1.0],"scale":[1.0,1.0,1.0],"name":"华3机柜-无LOGO_Object004"},{"mesh":6,"translation":[-0.2970631,-1.525879E-07,-0.5788511],"rotation":[0.0,0.0,0.0,1.0],"scale":[1.0,1.0,1.0],"name":"华3机柜-无LOGO_Object005"},{"mesh":7,"translation":[0.2972289,3.051758E-07,0.5787033],"rotation":[0.0,0.0,0.0,1.0],"scale":[1.0,1.0,1.0],"name":"华3机柜-无LOGO_Object006"},{"mesh":8,"translation":[0.2972289,3.051758E-07,0.5787033],"rotation":[0.0,0.0,0.0,1.0],"scale":[1.0,1.0,1.0],"name":"华3机柜-无LOGO_对象001"},{"mesh":9,"translation":[-0.0003710976,0.933450341,0.419980526],"rotation":[0.0,0.0,0.0,1.0],"scale":[1.0,1.0,1.0],"name":"对象008"}],"meshes":[{"primitives":[{"attributes":{"POSITION":1,"NORMAL":2,"TEXCOORD_0":3},"indices":0,"mode":4,"material":0}],"name":"华3机柜-无LOGO_ sdf"},{"primitives":[{"attributes":{"POSITION":5,"NORMAL":6,"TEXCOORD_0":7},"indices":4,"mode":4,"material":1}],"name":"华3机柜-无LOGO_Box001"},{"primitives":[{"attributes":{"POSITION":9,"NORMAL":10,"TEXCOORD_0":11},"indices":8,"mode":4,"material":0}],"name":"华3机柜-无LOGO_Object001"},{"primitives":[{"attributes":{"POSITION":13,"NORMAL":14,"TEXCOORD_0":15},"indices":12,"mode":4,"material":0}],"name":"华3机柜-无LOGO_Object002"},{"primitives":[{"attributes":{"POSITION":17,"NORMAL":18,"TEXCOORD_0":19},"indices":16,"mode":4,"material":0}],"name":"华3机柜-无LOGO_Object003"},{"primitives":[{"attributes":{"POSITION":21,"NORMAL":22,"TEXCOORD_0":23},"indices":20,"mode":4,"material":2}],"name":"华3机柜-无LOGO_Object004"},{"primitives":[{"attributes":{"POSITION":25,"NORMAL":26,"TEXCOORD_0":27},"indices":24,"mode":4,"material":2}],"name":"华3机柜-无LOGO_Object005"},{"primitives":[{"attributes":{"POSITION":29,"NORMAL":30,"TEXCOORD_0":31},"indices":28,"mode":4,"material":2}],"name":"华3机柜-无LOGO_Object006"},{"primitives":[{"attributes":{"POSITION":33,"NORMAL":34,"TEXCOORD_0":35},"indices":32,"mode":4,"material":0}],"name":"华3机柜-无LOGO_对象001"},{"primitives":[{"attributes":{"POSITION":37,"NORMAL":38,"TEXCOORD_0":39},"indices":36,"mode":4,"material":3}],"name":"对象008"}],"accessors":[{"bufferView":0,"componentType":5123,"count":18,"type":"SCALAR","name":"accessorIndices"},{"bufferView":1,"componentType":5126,"count":18,"max":[0.289736718,1.9734937,-0.021147741],"min":[0.0237356033,1.94992256,-0.02114779],"type":"VEC3","name":"accessorPositions"},{"bufferView":1,"byteOffset":216,"componentType":5126,"count":18,"type":"VEC3","name":"accessorNormals"},{"bufferView":2,"componentType":5126,"count":18,"type":"VEC2","name":"accessorUVs"},{"bufferView":0,"byteOffset":36,"componentType":5123,"count":1320,"type":"SCALAR","name":"accessorIndices"},{"bufferView":1,"byteOffset":432,"componentType":5126,"count":1320,"max":[0.300000131,2.00000072,0.5787013],"min":[-0.300000042,-1.80769831E-07,-0.578853548],"type":"VEC3","name":"accessorPositions"},{"bufferView":1,"byteOffset":16272,"componentType":5126,"count":1320,"type":"VEC3","name":"accessorNormals"},{"bufferView":2,"byteOffset":144,"componentType":5126,"count":1320,"type":"VEC2","name":"accessorUVs"},{"bufferView":0,"byteOffset":2676,"componentType":5123,"count":315,"type":"SCALAR","name":"accessorIndices"},{"bufferView":1,"byteOffset":32112,"componentType":5126,"count":315,"max":[0.00277163135,2.00000072,0.0212984439],"min":[-0.597228348,-9.599938E-08,-9.077358E-07],"type":"VEC3","name":"accessorPositions"},{"bufferView":1,"byteOffset":35892,"componentType":5126,"count":315,"type":"VEC3","name":"accessorNormals"},{"bufferView":2,"byteOffset":10704,"componentType":5126,"count":315,"type":"VEC2","name":"accessorUVs"},{"bufferView":0,"byteOffset":3308,"componentType":5123,"count":228,"type":"SCALAR","name":"accessorIndices"},{"bufferView":1,"byteOffset":39672,"componentType":5126,"count":228,"max":[0.297063261,2.00000072,-2.2961224E-07],"min":[-0.00293679256,-1.16803136E-08,-0.0211479366],"type":"VEC3","name":"accessorPositions"},{"bufferView":1,"byteOffset":42408,"componentType":5126,"count":228,"type":"VEC3","name":"accessorNormals"},{"bufferView":2,"byteOffset":13224,"componentType":5126,"count":228,"type":"VEC2","name":"accessorUVs"},{"bufferView":0,"byteOffset":3764,"componentType":5123,"count":234,"type":"SCALAR","name":"accessorIndices"},{"bufferView":1,"byteOffset":45144,"componentType":5126,"count":234,"max":[0.00277163135,2.00000072,-1.18223028E-07],"min":[-0.297228426,-1.16802532E-08,-0.0211478267],"type":"VEC3","name":"accessorPositions"},{"bufferView":1,"byteOffset":47952,"componentType":5126,"count":234,"type":"VEC3","name":"accessorNormals"},{"bufferView":2,"byteOffset":15048,"componentType":5126,"count":234,"type":"VEC2","name":"accessorUVs"},{"bufferView":0,"byteOffset":4232,"componentType":5123,"count":6,"type":"SCALAR","name":"accessorIndices"},{"bufferView":1,"byteOffset":50760,"componentType":5126,"count":6,"max":[-0.07087645,1.92635262,-0.02114707],"min":[-0.280753523,0.0707113445,-0.021147795],"type":"VEC3","name":"accessorPositions"},{"bufferView":1,"byteOffset":50832,"componentType":5126,"count":6,"type":"VEC3","name":"accessorNormals"},{"bufferView":2,"byteOffset":16920,"componentType":5126,"count":6,"type":"VEC2","name":"accessorUVs"},{"bufferView":0,"byteOffset":4244,"componentType":5123,"count":24,"type":"SCALAR","name":"accessorIndices"},{"bufferView":1,"byteOffset":50904,"componentType":5126,"count":24,"max":[0.280588418,1.92635262,-0.0211471729],"min":[0.07071128,0.0707113445,-0.0211478975],"type":"VEC3","name":"accessorPositions"},{"bufferView":1,"byteOffset":51192,"componentType":5126,"count":24,"type":"VEC3","name":"accessorNormals"},{"bufferView":2,"byteOffset":16968,"componentType":5126,"count":24,"type":"VEC2","name":"accessorUVs"},{"bufferView":0,"byteOffset":4292,"componentType":5123,"count":18,"type":"SCALAR","name":"accessorIndices"},{"bufferView":1,"byteOffset":51480,"componentType":5126,"count":18,"max":[-0.0799068958,1.9173218,0.0212984],"min":[-0.51455,0.0797416344,0.0212977733],"type":"VEC3","name":"accessorPositions"},{"bufferView":1,"byteOffset":51696,"componentType":5126,"count":18,"type":"VEC3","name":"accessorNormals"},{"bufferView":2,"byteOffset":17160,"componentType":5126,"count":18,"type":"VEC2","name":"accessorUVs"},{"bufferView":0,"byteOffset":4328,"componentType":5123,"count":18,"type":"SCALAR","name":"accessorIndices"},{"bufferView":1,"byteOffset":51912,"componentType":5126,"count":18,"max":[-0.079906866,1.99706364,0.0212979633],"min":[-0.195807829,1.9173218,0.0212979168],"type":"VEC3","name":"accessorPositions"},{"bufferView":1,"byteOffset":52128,"componentType":5126,"count":18,"type":"VEC3","name":"accessorNormals"},{"bufferView":2,"byteOffset":17304,"componentType":5126,"count":18,"type":"VEC2","name":"accessorUVs"},{"bufferView":0,"byteOffset":4364,"componentType":5123,"count":528,"type":"SCALAR","name":"accessorIndices"},{"bufferView":1,"byteOffset":52344,"componentType":5126,"count":528,"max":[0.281300038,0.9334503,2.372265E-07],"min":[-0.281300038,-0.933450162,-0.83995986],"type":"VEC3","name":"accessorPositions"},{"bufferView":1,"byteOffset":58680,"componentType":5126,"count":528,"type":"VEC3","name":"accessorNormals"},{"bufferView":2,"byteOffset":17448,"componentType":5126,"count":528,"type":"VEC2","name":"accessorUVs"},{"bufferView":3,"componentType":5126,"count":31,"max":[1.0],"min":[0.0],"type":"SCALAR","name":"accessorAnimationInput"},{"bufferView":4,"componentType":5126,"count":31,"type":"VEC4","name":"accessorAnimationRotations"},{"bufferView":3,"byteOffset":124,"componentType":5126,"count":31,"max":[1.0],"min":[0.0],"type":"SCALAR","name":"accessorAnimationInput"},{"bufferView":4,"byteOffset":496,"componentType":5126,"count":31,"type":"VEC4","name":"accessorAnimationRotations"},{"bufferView":3,"byteOffset":248,"componentType":5126,"count":31,"max":[1.0],"min":[0.0],"type":"SCALAR","name":"accessorAnimationInput"},{"bufferView":4,"byteOffset":992,"componentType":5126,"count":31,"type":"VEC4","name":"accessorAnimationRotations"},{"bufferView":3,"byteOffset":372,"componentType":5126,"count":31,"max":[1.0],"min":[0.0],"type":"SCALAR","name":"accessorAnimationInput"},{"bufferView":4,"byteOffset":1488,"componentType":5126,"count":31,"type":"VEC4","name":"accessorAnimationRotations"},{"bufferView":3,"byteOffset":496,"componentType":5126,"count":31,"max":[1.0],"min":[0.0],"type":"SCALAR","name":"accessorAnimationInput"},{"bufferView":4,"byteOffset":1984,"componentType":5126,"count":31,"type":"VEC4","name":"accessorAnimationRotations"},{"bufferView":3,"byteOffset":620,"componentType":5126,"count":31,"max":[1.0],"min":[0.0],"type":"SCALAR","name":"accessorAnimationInput"},{"bufferView":4,"byteOffset":2480,"componentType":5126,"count":31,"type":"VEC4","name":"accessorAnimationRotations"}],"bufferViews":[{"buffer":0,"byteLength":5420,"name":"bufferViewScalar"},{"buffer":0,"byteOffset":5420,"byteLength":65016,"byteStride":12,"name":"bufferViewFloatVec3"},{"buffer":0,"byteOffset":70436,"byteLength":21672,"byteStride":8,"name":"bufferViewFloatVec2"},{"buffer":0,"byteOffset":92108,"byteLength":744,"name":"bufferViewAnimationFloatScalar"},{"buffer":0,"byteOffset":92852,"byteLength":2976,"name":"bufferViewAnimationFloatVec4"}],"buffers":[{"uri":"399D879349EE4CB2917A746DDC5F1A7A.bin","byteLength":95828}],"materials":[{"pbrMetallicRoughness":{"baseColorFactor":[1.0,1.0,1.0,1.0],"baseColorTexture":{"index":0,"texCoord":0},"metallicFactor":0.0,"roughnessFactor":0.2581639},"emissiveFactor":[0.0,0.0,0.0],"alphaMode":"OPAQUE","name":"华3机柜-无LOGO_heim2 (Instance)"},{"pbrMetallicRoughness":{"baseColorFactor":[1.0,1.0,1.0,1.0],"baseColorTexture":{"index":1,"texCoord":0},"metallicFactor":0.0,"roughnessFactor":0.2581639},"emissiveFactor":[0.0,0.0,0.0],"alphaMode":"OPAQUE","name":"华3机柜-无LOGO_heijigui (Instance)"},{"pbrMetallicRoughness":{"baseColorFactor":[1.0,1.0,1.0,1.0],"baseColorTexture":{"index":2,"texCoord":0},"metallicFactor":0.0,"roughnessFactor":0.2581639},"emissiveFactor":[0.0,0.0,0.0],"alphaMode":"OPAQUE","name":"华3机柜-无LOGO_fwg (Instance)"},{"pbrMetallicRoughness":{"baseColorFactor":[1.0,1.0,1.0,1.0],"baseColorTexture":{"index":3,"texCoord":0},"metallicFactor":0.0,"roughnessFactor":0.450053632},"emissiveFactor":[0.0,0.0,0.0],"alphaMode":"OPAQUE","name":"Material #1"}],"textures":[{"sampler":0,"source":0,"name":"FB1B8CD712054BC2B76EAC52142AAE50.png"},{"sampler":0,"source":1,"name":"332507648DBD44FD8DD76117B93948BA.png"},{"sampler":0,"source":2,"name":"ADBBBFF68C2F41CF829F20A0899FBE8B.png"},{"sampler":0,"source":3,"name":"C71801AC5BAA492CBB1528FC5E5B8529.png"}],"images":[{"uri":"FB1B8CD712054BC2B76EAC52142AAE50.png"},{"uri":"332507648DBD44FD8DD76117B93948BA.png"},{"uri":"ADBBBFF68C2F41CF829F20A0899FBE8B.png"},{"uri":"C71801AC5BAA492CBB1528FC5E5B8529.png"}],"samplers":[{"magFilter":9729,"minFilter":9987,"wrapS":10497,"wrapT":10497}],"animations":[{"channels":[{"sampler":0,"target":{"node":2,"path":"rotation"}},{"sampler":1,"target":{"node":3,"path":"rotation"}},{"sampler":2,"target":{"node":4,"path":"rotation"}},{"sampler":3,"target":{"node":5,"path":"rotation"}},{"sampler":4,"target":{"node":6,"path":"rotation"}},{"sampler":5,"target":{"node":7,"path":"rotation"}}],"samplers":[{"input":40,"interpolation":"LINEAR","output":41},{"input":42,"interpolation":"LINEAR","output":43},{"input":44,"interpolation":"LINEAR","output":45},{"input":46,"interpolation":"LINEAR","output":47},{"input":48,"interpolation":"LINEAR","output":49},{"input":50,"interpolation":"LINEAR","output":51}],"name":"All Animations"}]}