{"asset":{"version":"2.0","generator":"babylon.js glTF exporter for 3dsmax 2020 v1.5.0"},"scene":0,"scenes":[{"nodes":[0,1,2,3,4,5,6,7],"extensions":{}}],"nodes":[{"mesh":0,"translation":[0.297878742,0.0,0.447680056],"rotation":[0.0,0.0,0.0,1.0],"scale":[1.0,1.0,1.0],"name":"对象049"},{"mesh":1,"translation":[-0.297000051,0.0,-0.447678983],"rotation":[0.0,0.0,0.0,1.0],"scale":[1.0,1.0,1.0],"name":"对象050"},{"mesh":2,"translation":[0.297000051,0.0,-0.447678983],"rotation":[0.0,0.0,0.0,1.0],"scale":[1.0,1.0,1.0],"name":"对象051"},{"mesh":3,"translation":[-3.57627869E-07,0.0,-0.009877995],"rotation":[0.0,0.0,0.0,1.0],"scale":[1.0,1.0,1.0],"name":"对象008"},{"mesh":4,"translation":[0.0,0.0,-2.01165676E-07],"rotation":[0.0,0.0,0.0,1.0],"scale":[1.0,1.0,1.0],"name":"Object001"},{"mesh":5,"translation":[0.297878742,0.0,0.447680056],"rotation":[0.0,0.0,0.0,1.0],"scale":[1.0,1.0,1.0],"name":"Object002"},{"mesh":6,"translation":[-0.297000051,0.0,-0.447678983],"rotation":[0.0,0.0,0.0,1.0],"scale":[1.0,1.0,1.0],"name":"Object003"},{"mesh":7,"translation":[0.297000051,0.0,-0.447678983],"rotation":[0.0,0.0,0.0,1.0],"scale":[1.0,1.0,1.0],"name":"Object004"}],"meshes":[{"primitives":[{"attributes":{"POSITION":1,"NORMAL":2,"TEXCOORD_0":3},"indices":0,"mode":4,"material":0}],"name":"对象049"},{"primitives":[{"attributes":{"POSITION":5,"NORMAL":6,"TEXCOORD_0":7},"indices":4,"mode":4,"material":0}],"name":"对象050"},{"primitives":[{"attributes":{"POSITION":9,"NORMAL":10,"TEXCOORD_0":11},"indices":8,"mode":4,"material":0}],"name":"对象051"},{"primitives":[{"attributes":{"POSITION":13,"NORMAL":14,"TEXCOORD_0":15},"indices":12,"mode":4,"material":1}],"name":"对象008"},{"primitives":[{"attributes":{"POSITION":17,"NORMAL":18,"TEXCOORD_0":19},"indices":16,"mode":4,"material":0}],"name":"Object001"},{"primitives":[{"attributes":{"POSITION":21,"NORMAL":22,"TEXCOORD_0":23},"indices":20,"mode":4,"material":2}],"name":"Object002"},{"primitives":[{"attributes":{"POSITION":25,"NORMAL":26,"TEXCOORD_0":27},"indices":24,"mode":4,"material":2}],"name":"Object003"},{"primitives":[{"attributes":{"POSITION":29,"NORMAL":30,"TEXCOORD_0":31},"indices":28,"mode":4,"material":2}],"name":"Object004"}],"accessors":[{"bufferView":0,"componentType":5123,"count":198,"type":"SCALAR","name":"accessorIndices"},{"bufferView":1,"componentType":5126,"count":198,"max":[0.00212129951,1.99448836,0.02732065],"min":[-0.5978787,0.0505114272,-1.293607E-06],"type":"VEC3","name":"accessorPositions"},{"bufferView":1,"byteOffset":2376,"componentType":5126,"count":198,"type":"VEC3","name":"accessorNormals"},{"bufferView":2,"componentType":5126,"count":198,"type":"VEC2","name":"accessorUVs"},{"bufferView":0,"byteOffset":396,"componentType":5123,"count":162,"type":"SCALAR","name":"accessorIndices"},{"bufferView":1,"byteOffset":4752,"componentType":5126,"count":162,"max":[0.297,1.99448848,3.259629E-07],"min":[-0.003000006,0.0505117364,-0.0273218],"type":"VEC3","name":"accessorPositions"},{"bufferView":1,"byteOffset":6696,"componentType":5126,"count":162,"type":"VEC3","name":"accessorNormals"},{"bufferView":2,"byteOffset":1584,"componentType":5126,"count":162,"type":"VEC2","name":"accessorUVs"},{"bufferView":0,"byteOffset":720,"componentType":5123,"count":156,"type":"SCALAR","name":"accessorIndices"},{"bufferView":1,"byteOffset":8640,"componentType":5126,"count":156,"max":[0.00299999118,1.99448848,3.259629E-07],"min":[-0.297,0.0505117364,-0.0273218],"type":"VEC3","name":"accessorPositions"},{"bufferView":1,"byteOffset":10512,"componentType":5126,"count":156,"type":"VEC3","name":"accessorNormals"},{"bufferView":2,"byteOffset":2880,"componentType":5126,"count":156,"type":"VEC2","name":"accessorUVs"},{"bufferView":0,"byteOffset":1032,"componentType":5123,"count":528,"type":"SCALAR","name":"accessorIndices"},{"bufferView":1,"byteOffset":12384,"componentType":5126,"count":528,"max":[0.2501029,1.961968,0.417242348],"min":[-0.2501029,0.09506738,-0.41724205],"type":"VEC3","name":"accessorPositions"},{"bufferView":1,"byteOffset":18720,"componentType":5126,"count":528,"type":"VEC3","name":"accessorNormals"},{"bufferView":2,"byteOffset":4128,"componentType":5126,"count":528,"type":"VEC2","name":"accessorUVs"},{"bufferView":0,"byteOffset":2088,"componentType":5123,"count":936,"type":"SCALAR","name":"accessorIndices"},{"bufferView":1,"byteOffset":25056,"componentType":5126,"count":936,"max":[0.299999982,2.04500031,0.475001067],"min":[-0.299999982,-3.05764814E-07,-0.4750007],"type":"VEC3","name":"accessorPositions"},{"bufferView":1,"byteOffset":36288,"componentType":5126,"count":936,"type":"VEC3","name":"accessorNormals"},{"bufferView":2,"byteOffset":8352,"componentType":5126,"count":936,"type":"VEC2","name":"accessorUVs"},{"bufferView":0,"byteOffset":3960,"componentType":5123,"count":18,"type":"SCALAR","name":"accessorIndices"},{"bufferView":1,"byteOffset":47520,"componentType":5126,"count":18,"max":[-0.0618824959,1.95944715,0.0273208655],"min":[-0.533874869,0.0855526552,0.02731913],"type":"VEC3","name":"accessorPositions"},{"bufferView":1,"byteOffset":47736,"componentType":5126,"count":18,"type":"VEC3","name":"accessorNormals"},{"bufferView":2,"byteOffset":15840,"componentType":5126,"count":18,"type":"VEC2","name":"accessorUVs"},{"bufferView":0,"byteOffset":3996,"componentType":5123,"count":24,"type":"SCALAR","name":"accessorIndices"},{"bufferView":1,"byteOffset":47952,"componentType":5126,"count":24,"max":[0.27699998,1.95944738,-0.0273199417],"min":[0.0534600019,0.0855529457,-0.0273217559],"type":"VEC3","name":"accessorPositions"},{"bufferView":1,"byteOffset":48240,"componentType":5126,"count":24,"type":"VEC3","name":"accessorNormals"},{"bufferView":2,"byteOffset":15984,"componentType":5126,"count":24,"type":"VEC2","name":"accessorUVs"},{"bufferView":0,"byteOffset":4044,"componentType":5123,"count":6,"type":"SCALAR","name":"accessorIndices"},{"bufferView":1,"byteOffset":48528,"componentType":5126,"count":6,"max":[-0.05346001,1.95944738,-0.0273199417],"min":[-0.27699998,0.0855529457,-0.0273217559],"type":"VEC3","name":"accessorPositions"},{"bufferView":1,"byteOffset":48600,"componentType":5126,"count":6,"type":"VEC3","name":"accessorNormals"},{"bufferView":2,"byteOffset":16176,"componentType":5126,"count":6,"type":"VEC2","name":"accessorUVs"},{"bufferView":3,"componentType":5126,"count":31,"max":[1.0],"min":[0.0],"type":"SCALAR","name":"accessorAnimationInput"},{"bufferView":4,"componentType":5126,"count":31,"type":"VEC4","name":"accessorAnimationRotations"},{"bufferView":3,"byteOffset":124,"componentType":5126,"count":31,"max":[1.0],"min":[0.0],"type":"SCALAR","name":"accessorAnimationInput"},{"bufferView":4,"byteOffset":496,"componentType":5126,"count":31,"type":"VEC4","name":"accessorAnimationRotations"},{"bufferView":3,"byteOffset":248,"componentType":5126,"count":31,"max":[1.0],"min":[0.0],"type":"SCALAR","name":"accessorAnimationInput"},{"bufferView":4,"byteOffset":992,"componentType":5126,"count":31,"type":"VEC4","name":"accessorAnimationRotations"},{"bufferView":3,"byteOffset":372,"componentType":5126,"count":31,"max":[1.0],"min":[0.0],"type":"SCALAR","name":"accessorAnimationInput"},{"bufferView":4,"byteOffset":1488,"componentType":5126,"count":31,"type":"VEC4","name":"accessorAnimationRotations"},{"bufferView":3,"byteOffset":496,"componentType":5126,"count":31,"max":[1.0],"min":[0.0],"type":"SCALAR","name":"accessorAnimationInput"},{"bufferView":4,"byteOffset":1984,"componentType":5126,"count":31,"type":"VEC4","name":"accessorAnimationRotations"},{"bufferView":3,"byteOffset":620,"componentType":5126,"count":31,"max":[1.0],"min":[0.0],"type":"SCALAR","name":"accessorAnimationInput"},{"bufferView":4,"byteOffset":2480,"componentType":5126,"count":31,"type":"VEC4","name":"accessorAnimationRotations"}],"bufferViews":[{"buffer":0,"byteLength":4056,"name":"bufferViewScalar"},{"buffer":0,"byteOffset":4056,"byteLength":48672,"byteStride":12,"name":"bufferViewFloatVec3"},{"buffer":0,"byteOffset":52728,"byteLength":16224,"byteStride":8,"name":"bufferViewFloatVec2"},{"buffer":0,"byteOffset":68952,"byteLength":744,"name":"bufferViewAnimationFloatScalar"},{"buffer":0,"byteOffset":69696,"byteLength":2976,"name":"bufferViewAnimationFloatVec4"}],"buffers":[{"uri":"EFAA108476604377BE7372D165444464.bin","byteLength":72672}],"materials":[{"pbrMetallicRoughness":{"baseColorFactor":[1.0,1.0,1.0,1.0],"baseColorTexture":{"index":0,"texCoord":0},"metallicFactor":0.0,"roughnessFactor":0.450053632},"emissiveFactor":[0.0,0.0,0.0],"alphaMode":"OPAQUE","name":"07 - Default"},{"pbrMetallicRoughness":{"baseColorFactor":[1.0,1.0,1.0,1.0],"baseColorTexture":{"index":1,"texCoord":0},"metallicFactor":0.0,"roughnessFactor":0.450053632},"emissiveFactor":[0.0,0.0,0.0],"alphaMode":"OPAQUE","name":"Material #1"},{"pbrMetallicRoughness":{"baseColorFactor":[1.0,1.0,1.0,1.0],"baseColorTexture":{"index":2,"texCoord":0},"metallicFactor":0.0,"roughnessFactor":0.450053632},"emissiveFactor":[0.0,0.0,0.0],"alphaMode":"OPAQUE","name":"Material #39"}],"textures":[{"sampler":0,"source":0,"name":"8AB622E707534EE7BAF3E4373FE3FB13.png"},{"sampler":0,"source":1,"name":"B833B7DDCAC644C4B59E510A36E4307D.png"},{"sampler":0,"source":2,"name":"D15B67169A524BAA93E33B653B69273C.png"}],"images":[{"uri":"8AB622E707534EE7BAF3E4373FE3FB13.png"},{"uri":"B833B7DDCAC644C4B59E510A36E4307D.png"},{"uri":"D15B67169A524BAA93E33B653B69273C.png"}],"samplers":[{"magFilter":9729,"minFilter":9987,"wrapS":10497,"wrapT":10497}],"animations":[{"channels":[{"sampler":0,"target":{"node":0,"path":"rotation"}},{"sampler":1,"target":{"node":1,"path":"rotation"}},{"sampler":2,"target":{"node":2,"path":"rotation"}},{"sampler":3,"target":{"node":5,"path":"rotation"}},{"sampler":4,"target":{"node":6,"path":"rotation"}},{"sampler":5,"target":{"node":7,"path":"rotation"}}],"samplers":[{"input":32,"interpolation":"LINEAR","output":33},{"input":34,"interpolation":"LINEAR","output":35},{"input":36,"interpolation":"LINEAR","output":37},{"input":38,"interpolation":"LINEAR","output":39},{"input":40,"interpolation":"LINEAR","output":41},{"input":42,"interpolation":"LINEAR","output":43}],"name":"All Animations"}]}